HIERARCHY
ROOT Hips
{
	OFFSET -11.342555 113.460480 -2.947132
	CHANNELS 6 Xposition Yposition Zposition Xrotation Yrotation Zrotation
	JOINT Chest
	{
		OFFSET -2.619329 13.296394 1.580881
		CHANNELS 3 Xrotation Yrotation Zrotation
		JOINT Chest2
		{
			OFFSET -1.324987 21.353874 1.150284
			CHANNELS 3 Xrotation Yrotation Zrotation
			JOINT Chest3
			{
				OFFSET 3.844462 14.415405 -0.486137
				CHANNELS 3 Xrotation Yrotation Zrotation
				JOINT Neck
				{
					OFFSET 2.423700 16.984756 2.063903
					CHANNELS 3 Xrotation Yrotation Zrotation
					JOINT Head
					{
						OFFSET 2.209339 10.098740 1.721077
						CHANNELS 3 Xrotation Yrotation Zrotation
						End Site
						{
							OFFSET 2.280686 10.082855 1.721139
						}
					}
				}
				JOINT LeftCollar
				{
					OFFSET -0.853909 12.893768 5.901337
					CHANNELS 3 Xrotation Yrotation Zrotation
					JOINT LeftUpArm
					{
						OFFSET 4.174059 4.707611 16.398626
						CHANNELS 3 Xrotation Yrotation Zrotation
						JOINT LeftLowArm
						{
							OFFSET -25.203909 21.495468 6.514231
							CHANNELS 3 Xrotation Yrotation Zrotation
							JOINT LeftHand
							{
								OFFSET -3.101223 29.068451 -6.808409
								CHANNELS 3 Xrotation Yrotation Zrotation
								End Site
								{
									OFFSET -0.677795 6.353088 -1.488008
								}
							}
						}
					}
				}
				JOINT RightCollar
				{
					OFFSET -1.134201 13.948044 -2.444263
					CHANNELS 3 Xrotation Yrotation Zrotation
					JOINT RightUpArm
					{
						OFFSET 6.874673 7.476807 -14.329428
						CHANNELS 3 Xrotation Yrotation Zrotation
						JOINT RightLowArm
						{
							OFFSET -18.837868 26.753098 -8.315084
							CHANNELS 3 Xrotation Yrotation Zrotation
							JOINT RightHand
							{
								OFFSET -5.934851 23.281586 17.991665
								CHANNELS 3 Xrotation Yrotation Zrotation
								End Site
								{
									OFFSET -1.297127 5.088409 3.932281
								}
							}
						}
					}
				}
			}
		}
	}
	JOINT LeftUpLeg
	{
		OFFSET 2.166619 -0.733391 9.756385
		CHANNELS 3 Xrotation Yrotation Zrotation
		JOINT LeftLowLeg
		{
			OFFSET 3.171194 -47.189270 2.665663
			CHANNELS 3 Xrotation Yrotation Zrotation
			JOINT LeftFoot
			{
				OFFSET 9.270372 -43.413597 -5.466982
				CHANNELS 3 Xrotation Yrotation Zrotation
				JOINT LeftToe
				{
					OFFSET -6.378544 -22.597326 2.869580
					CHANNELS 3 Xrotation Yrotation Zrotation
					End Site
					{
						OFFSET -17.394938 -13.042999 9.319614
					}
				}
			}
		}
	}
	JOINT RightUpLeg
	{
		OFFSET -2.166581 0.733192 -9.756412
		CHANNELS 3 Xrotation Yrotation Zrotation
		JOINT RightLowLeg
		{
			OFFSET -2.512804 -46.464310 -8.874963
			CHANNELS 3 Xrotation Yrotation Zrotation
			JOINT RightFoot
			{
				OFFSET 11.168934 -42.307732 -9.267691
				CHANNELS 3 Xrotation Yrotation Zrotation
				JOINT RightToe
				{
					OFFSET -6.540561 -22.729670 -0.373808
					CHANNELS 3 Xrotation Yrotation Zrotation
					End Site
					{
						OFFSET -19.479012 -13.420885 0.063707
					}
				}
			}
		}
	}
}
MOTION
Frames: 17
Frame Time: 0.033333
-17.842163 109.440376 7.666407 185.328468 51.777007 -183.647244 1.046370 -4.439490 32.861543 -0.107181 -1.324012 7.496839 -5.651065 25.792058 -2.420860 -41.915925 -16.678204 -14.422303 -0.000003 0.000001 0.000004 -2.580827 -4.108707 2.259734 17.905037 -4.612210 21.467119 -36.569345 -33.733614 42.617990 0.000002 -0.000002 0.000002 -31.183014 18.627357 27.418391 -27.831535 3.220202 28.373917 -1.531421 -2.372590 -16.426730 0.000002 0.000001 0.000003 -8.252047 1.081794 -22.796919 7.031516 -2.392141 35.920621 -4.111626 -14.392356 -31.849257 0.000003 0.000001 -0.000003 -5.832952 5.142937 -22.360299 -0.371527 -3.062080 40.116320 7.183012 -7.870056 -29.743944 -0.000001 0.000002 -0.000001 
-18.252176 109.123940 7.895946 184.944761 49.296453 -183.685944 1.106359 -4.454862 33.265989 0.044750 -1.354817 8.167429 -5.411257 26.283195 -2.335555 -42.455554 -17.671911 -13.432236 -0.000000 0.000002 0.000006 -1.412075 -3.772269 2.601387 20.099695 -4.043353 23.470880 -35.465026 -35.315681 48.076769 -0.000001 -0.000003 0.000003 -32.760862 18.385324 28.337704 -30.516001 2.174637 30.135041 -0.415999 -1.913225 -17.617034 0.000002 0.000002 0.000001 -9.697786 1.308622 -23.870108 9.246183 -1.764576 38.413742 -4.915765 -12.341995 -30.965325 0.000001 0.000004 -0.000003 -6.088849 4.870704 -21.036680 -1.449403 -3.335051 38.860197 8.001996 -9.256820 -30.200716 0.000001 -0.000002 0.000001 
-18.671722 108.800674 8.120303 184.972956 46.731714 -183.871288 1.073680 -4.588678 33.896904 0.478978 -1.181897 8.765844 -5.565680 25.569887 -2.061258 -41.848371 -18.746875 -11.510556 0.000001 -0.000001 -0.000001 0.819301 -2.711491 2.970683 19.477288 -4.509150 24.720405 -34.286607 -34.577437 51.520636 -0.000001 0.000002 0.000001 -33.079200 17.978257 29.122540 -31.630323 0.644543 31.120640 -0.470563 -2.677539 -18.257374 -0.000003 0.000006 0.000008 -10.202824 1.350029 -24.977648 12.052342 -0.543581 40.760838 -7.016101 -8.713647 -30.328912 -0.000000 0.000004 -0.000003 -5.761513 4.923667 -20.613456 -2.733734 -3.965925 38.578425 9.225145 -11.140277 -30.797992 -0.000001 0.000003 0.000005 
-19.092625 108.468262 8.329658 184.907072 44.688107 -184.208972 1.332935 -4.575532 34.454859 1.038708 -0.958651 9.787243 -5.495443 25.056236 -2.252194 -40.658473 -19.830105 -8.689680 -0.000001 0.000002 0.000001 2.016139 -1.882897 3.113033 18.339912 -5.905942 25.766950 -32.632991 -32.568131 54.257650 0.000001 -0.000004 0.000002 -32.441046 17.126397 28.336182 -32.007824 -1.391113 29.460747 -0.702055 -3.935413 -15.416212 0.000002 0.000003 0.000001 -10.004247 1.071713 -24.155089 12.993316 0.025785 41.937119 -7.698699 -7.202145 -29.190541 0.000001 0.000009 0.000001 -5.178801 5.239901 -21.468581 -4.172986 -4.997117 40.287475 9.903373 -12.336787 -29.269242 -0.000001 0.000006 -0.000001 
-19.486448 108.169884 8.522578 184.907414 43.207855 -184.294309 1.214041 -4.688896 34.690473 1.298580 -0.804351 10.528578 -5.280731 24.272698 -2.418502 -39.056364 -20.479081 -6.137385 0.000002 0.000002 -0.000000 1.705245 -1.818530 3.506707 17.932564 -5.420529 26.485865 -33.410219 -31.066006 53.406014 0.000002 -0.000006 0.000000 -32.227530 16.439881 28.157455 -31.864106 -2.931471 28.461815 -0.762351 -5.105358 -14.050840 -0.000001 0.000006 0.000004 -8.632645 0.706566 -23.573546 11.738119 -0.498105 41.783371 -9.114015 -6.020766 -30.444585 0.000002 0.000006 -0.000002 -4.451037 5.738728 -22.911106 -4.921485 -5.564860 41.855109 10.620192 -13.724223 -27.053578 0.000003 -0.000003 0.000003 
-19.899921 107.900391 8.661538 185.383779 41.006683 -184.744364 1.333674 -4.544376 34.805811 2.193777 -0.573683 11.763242 -5.178821 23.238571 -3.048746 -37.763914 -21.368686 -4.183976 0.000001 -0.000000 0.000007 2.779335 -2.739812 3.747852 20.091532 -3.054127 26.410333 -32.495144 -32.120870 58.280870 0.000002 -0.000004 0.000002 -32.853387 16.598471 28.090586 -35.823427 -5.314968 27.080865 4.418380 -5.316364 -5.083650 -0.000001 0.000007 0.000003 -7.028528 0.469714 -21.971423 9.819092 -1.365524 39.219035 -8.735679 -6.737126 -31.124865 0.000002 0.000006 -0.000002 -4.261236 6.160005 -24.598424 -3.461026 -4.838574 43.691559 11.113875 -14.300078 -22.940217 0.000001 0.000002 0.000001 
-20.360390 107.685402 8.748003 186.268739 37.704161 -184.938218 2.499204 -3.877695 34.245926 3.261655 -0.167021 13.224043 -5.720111 21.172681 -3.955369 -36.530939 -22.239207 -1.377919 -0.000001 -0.000000 0.000004 5.318101 -2.734014 3.992200 21.053139 -1.648243 26.481468 -31.469724 -33.131141 62.565619 -0.000003 -0.000002 0.000001 -33.071991 15.902306 27.266848 -41.160383 -8.323571 27.196201 10.691948 -4.494158 5.827503 -0.000000 0.000008 0.000006 -7.006414 0.407137 -21.166992 10.716073 -0.777160 36.070622 -7.399016 -7.725765 -29.510666 0.000001 0.000006 0.000003 -4.405885 6.602577 -26.054421 -1.068608 -3.457200 45.558584 10.402436 -13.304503 -21.120951 0.000000 0.000002 0.000001 
-20.789879 107.495056 8.860622 186.417323 34.894207 -184.931210 2.899704 -3.659527 33.917251 4.855719 0.667843 13.518539 -7.321345 19.840600 -3.907337 -35.907708 -22.989910 0.538484 -0.000001 0.000000 0.000005 6.125327 -3.787361 4.412166 22.794653 -0.769514 26.652913 -29.812406 -33.637049 66.225849 0.000002 -0.000002 0.000003 -33.463866 15.522162 26.506487 -46.573950 -10.835987 26.608745 15.008284 -3.551941 17.677264 0.000001 0.000006 0.000003 -7.004036 0.645236 -21.501331 11.172722 -0.589212 35.753202 -6.556824 -7.999782 -28.172717 -0.000001 0.000007 0.000001 -4.327670 6.590283 -26.600354 -0.626648 -3.064866 46.340129 10.001528 -13.015391 -20.280678 -0.000000 0.000001 0.000005 
-21.206860 107.286293 8.942232 185.906261 31.825171 -185.216781 3.624370 -3.338770 33.437826 6.304390 1.433733 14.337993 -8.493764 20.284564 -3.763639 -35.922075 -24.346486 2.527590 -0.000001 0.000003 0.000002 7.417083 -3.361451 5.059390 23.812205 0.296458 28.033880 -29.941599 -34.747597 69.105402 0.000000 -0.000000 0.000000 -33.561255 14.162565 25.783875 -51.772718 -14.350688 27.002758 19.057232 -2.500121 28.435353 0.000003 0.000004 0.000003 -6.705593 0.758283 -22.281018 10.720113 -0.885823 37.342823 -6.435094 -8.541115 -28.553647 0.000003 0.000002 -0.000003 -4.211901 6.435695 -25.930123 -0.196482 -2.909846 46.318952 9.695756 -12.227361 -20.434673 0.000000 -0.000000 0.000003 
-21.626802 107.087196 8.940201 185.181236 28.089529 -185.174789 4.182960 -2.976835 31.952253 8.128120 2.366139 15.748227 -9.146557 21.614086 -4.360556 -36.061643 -26.409609 5.532344 -0.000000 -0.000001 0.000002 9.374832 -2.551399 5.590302 24.176315 -0.143724 29.795785 -28.857621 -35.397612 73.515655 -0.000000 -0.000002 0.000002 -34.253798 12.454152 24.346640 -57.723978 -18.475928 25.112867 22.421669 -0.681584 38.211808 0.000003 0.000005 0.000005 -6.598602 0.899461 -23.307718 10.041596 -2.002186 38.798620 -4.996207 -8.954393 -26.190545 0.000002 0.000004 -0.000003 -4.303532 5.968576 -23.712713 -1.624120 -3.066771 44.211452 10.079328 -12.723563 -21.676328 -0.000001 0.000002 0.000006 
-22.007395 106.918015 8.924537 185.163642 25.427983 -185.247626 5.810623 -2.147185 30.726409 5.862861 0.647746 17.982525 -6.612866 24.144278 -5.236792 -35.662538 -27.356397 7.644955 0.000001 0.000000 0.000003 10.560359 -3.034533 6.324272 25.014984 -0.056919 31.110870 -27.305339 -34.679439 76.945721 -0.000000 -0.000002 0.000001 -35.248929 11.872857 24.199022 -62.267720 -21.202195 23.787134 24.197805 0.443381 46.220201 0.000003 0.000002 0.000002 -6.315890 0.965599 -24.216893 10.051637 -2.364664 39.899834 -4.088676 -9.420970 -24.929002 -0.000000 0.000004 0.000001 -4.269208 5.508513 -21.884703 -2.693281 -3.299528 41.950417 10.799031 -13.951720 -22.206542 -0.000001 -0.000002 0.000005 
-22.333740 106.762398 8.930876 183.938210 23.091213 -185.791500 7.137180 -1.558851 30.698053 6.124950 0.670080 18.899511 -6.494101 27.294413 -5.336773 -36.162382 -28.722366 9.223319 -0.000004 -0.000000 -0.000001 12.245704 -3.361478 6.767646 26.800744 2.722319 30.342548 -22.179784 -31.582692 86.933548 0.000004 -0.000002 0.000001 -37.473488 11.113464 23.908823 -67.195237 -23.507730 21.053933 24.529485 0.751830 54.893117 -0.000001 0.000002 0.000009 -7.852960 1.240388 -23.923467 10.184452 -2.480194 41.292271 -3.547368 -9.764537 -24.229936 0.000001 0.000004 0.000001 -5.443028 4.839118 -19.132215 -4.023755 -3.681751 39.805308 11.395195 -15.061836 -22.465529 0.000002 -0.000001 0.000003 
-22.616947 106.633820 8.947311 182.770507 18.538578 -185.816075 6.703992 -1.792226 30.717645 8.245453 2.060091 18.324875 -8.708062 28.719750 -4.280555 -38.334082 -30.487997 8.874381 -0.000000 -0.000002 0.000002 12.011227 -2.212024 6.416409 29.652430 3.672261 33.111896 -18.857280 -26.360022 93.018352 -0.000002 -0.000003 0.000003 -41.282708 10.464154 24.392605 -70.760357 -25.451305 18.912912 23.925120 -0.562100 61.048682 0.000004 0.000000 0.000005 -8.576718 1.389520 -24.538138 9.400348 -2.778531 43.275693 -3.329337 -11.092443 -25.384849 0.000003 0.000003 -0.000001 -6.583155 4.166429 -16.367874 -4.373169 -4.082745 36.641079 11.971695 -15.180843 -22.966511 -0.000000 -0.000001 0.000003 
-22.863655 106.512489 8.974054 181.801590 14.974138 -185.735137 6.569424 -1.813590 30.593189 8.633941 2.312373 18.195610 -9.310690 28.350526 -3.902343 -38.432750 -31.704492 10.117440 -0.000000 -0.000001 0.000002 11.852977 -1.597063 5.932428 33.054274 5.641641 35.310193 -16.872811 -22.004943 96.628804 -0.000003 0.000000 0.000003 -44.086381 10.146827 24.741013 -73.305449 -26.461717 17.327227 23.018733 -2.333042 65.656949 -0.000000 -0.000001 0.000002 -9.297594 1.417721 -25.014758 8.839971 -2.978465 44.416345 -2.884794 -11.515974 -24.867334 -0.000000 0.000004 -0.000003 -7.542155 3.822109 -14.755594 -4.744272 -4.357811 34.611075 12.122167 -15.108771 -22.641867 0.000002 0.000000 0.000005 
-23.056431 106.419014 8.963957 181.266541 10.354995 -185.688405 6.032676 -2.055608 30.644559 6.881144 1.233754 18.077083 -7.739789 27.833670 -3.353038 -37.029758 -31.791624 11.722186 0.000002 0.000002 0.000003 14.454195 -1.290019 6.077333 38.414845 11.568317 36.074812 -16.302150 -16.979084 95.418760 0.000001 -0.000003 0.000003 -45.947372 9.298386 24.213693 -74.055643 -27.154807 15.466685 22.420473 -4.821084 70.428785 0.000003 0.000004 -0.000000 -9.693950 1.391398 -23.335879 6.698185 -3.526790 41.909955 -2.162404 -13.322154 -25.805162 -0.000000 0.000003 0.000001 -7.787041 3.696942 -14.342159 -5.594840 -5.022763 34.052779 13.879620 -17.489236 -20.462352 -0.000001 -0.000000 -0.000000 
-23.203861 106.320518 8.937745 182.481099 1.058397 -185.876741 5.687527 -2.209099 31.251141 3.348844 -1.110494 18.410256 -4.113198 28.556418 -3.695269 -38.547494 -32.321859 10.516317 -0.000004 -0.000001 0.000003 19.459820 0.673803 5.204095 46.061006 19.483330 36.156433 -19.619131 -18.856762 82.912479 0.000001 -0.000000 0.000001 -46.889491 8.198377 22.502436 -75.096188 -27.286426 13.898287 21.066349 -7.368542 72.498346 -0.000002 0.000002 0.000006 -8.111698 1.019098 -21.347987 5.135952 -3.625496 36.576288 -1.043495 -13.798726 -24.454891 0.000002 0.000006 0.000001 -4.250412 3.408457 -14.084258 -7.986856 -6.047718 35.192577 15.433528 -19.214406 -15.616565 0.000000 -0.000000 0.000001 
-23.310280 106.241470 8.950504 183.713743 -6.572531 -186.009902 5.690323 -2.178188 31.822828 1.700043 -2.418156 18.961100 -2.389418 28.467182 -4.301292 -37.629083 -32.271998 11.171632 -0.000001 0.000003 -0.000002 23.602820 0.877836 4.749313 53.590713 27.056599 32.859118 -22.194985 -23.628256 79.325161 0.000003 -0.000000 0.000001 -47.832566 8.110457 21.675599 -75.777506 -26.390692 12.336128 19.575515 -10.488209 75.035038 0.000002 0.000002 0.000002 -6.868123 1.003188 -20.316032 5.184831 -3.223502 33.616388 -1.741796 -11.925445 -23.770465 0.000002 0.000002 -0.000001 -1.315285 3.089619 -14.397065 -7.073092 -5.881513 38.740447 13.840122 -17.183298 -13.684714 0.000000 -0.000001 -0.000000 
